<svg height="511pt" viewBox="0 -66 511.99967 511" width="511pt" xmlns="http://www.w3.org/2000/svg"><path d="m400.886719 380.5h-273.175781c-100.929688 0-161.828126-111.242188-107.207032-194.652344 21.738282-33.210937 43.996094-38.554687 43.996094-43.125 0-146.523437 196.105469-196.355468 268.394531-70.273437 62.46875-32.113281 134.058594 28.871093 110.917969 95.550781 113.269531 46.265625 76.078125 212.5-42.925781 212.5zm-306.382813-237.777344c0 9.707032-.449218 20.09375-12.859375 26.597656-88.378906 46.3125-55.859375 181.171876 46.066407 181.171876h273.175781c89.96875 0 113.589843-126.410157 27.480469-156.257813-13.34375-4.625-19.949219-19.710937-14.246094-32.652344 19.121094-43.367187-31.234375-84.9375-70.519532-60.746093-12.109374 7.457031-28.015624 3.09375-34.550781-9.464844-54.019531-103.71875-214.546875-67.078125-214.546875 51.351562zm0 0"/><path d="m117.929688 272.300781v-49.847656c0-15.300781 4.207031-26.527344 12.632812-33.675781 8.421875-7.148438 19.40625-10.722656 32.960938-10.722656 13.929687 0 25.359374 3.324218 34.289062 9.972656 8.929688 6.648437 13.390625 15.800781 13.390625 27.464844 0 5.390624-1.136719 9.0625-3.417969 11.003906-2.28125 1.945312-6.078125 2.917968-11.398437 2.917968-9.496094 0-14.4375-2.945312-14.816407-8.84375-.378906-11.285156-6.015624-16.929687-16.90625-16.929687-11.398437 0-17.097656 6.273437-17.097656 18.8125v49.851563c0 12.539062 5.761719 18.8125 17.285156 18.8125 3.546876 0 6.492188-.566407 8.835938-1.695313 2.339844-1.128906 4.015625-2.851563 5.03125-5.171875 1.011719-2.320312 1.679688-4.234375 1.996094-5.738281.3125-1.503907.597656-3.574219.855468-6.207031.503907-5.894532 5.378907-8.84375 14.625-8.84375 5.445313 0 9.308594.976562 11.589844 2.917968 2.28125 1.945313 3.417969 5.613282 3.417969 11.003906 0 12.167969-4.464844 21.761719-13.390625 28.785157-8.929688 7.023437-20.363281 10.53125-34.292969 10.53125-13.550781 0-24.539062-3.574219-32.957031-10.722657-8.425781-7.148437-12.632812-18.371093-12.632812-33.675781zm0 0"/><path d="m232.289062 272.300781v-49.847656c0-15.300781 4.242188-26.527344 12.730469-33.675781 8.480469-7.148438 19.753907-10.722656 33.8125-10.722656 14.183594 0 25.519531 3.574218 34.003907 10.722656 8.484374 7.148437 12.730468 18.375 12.730468 33.675781v49.847656c0 15.304688-4.246094 26.527344-12.730468 33.675781-8.484376 7.148438-19.820313 10.722657-34.003907 10.722657-14.058593 0-25.332031-3.574219-33.8125-10.722657-8.488281-7.148437-12.730469-18.371093-12.730469-33.675781zm29.636719 0c0 12.542969 5.632813 18.8125 16.90625 18.8125 11.398438 0 17.097657-6.269531 17.097657-18.8125v-49.847656c0-12.539063-5.699219-18.8125-17.097657-18.8125-11.273437 0-16.90625 6.269531-16.90625 18.8125zm0 0"/><path d="m347.292969 310.03125v-11.191406c0-3.304688 1.238281-6.613282 3.71875-9.921875 2.476562-3.304688 5.472656-6.265625 8.984375-8.882813l10.628906-7.882812c3.675781-2.625 6.785156-5.371094 9.328125-8.230469s3.8125-5.640625 3.8125-8.347656c0-2.164063-.742187-4.074219-2.226563-5.738281-1.488281-1.660157-3.71875-2.492188-6.6875-2.492188-2.582031 0-4.695312.714844-6.335937 2.144531-1.644531 1.425781-2.464844 3.6875-2.464844 6.78125 0 1.828125-.859375 3.414063-2.570312 4.761719-1.714844 1.347656-3.980469 2.023438-6.800781 2.023438-5.332032 0-7.996094-3.097657-7.996094-9.289063 0-6.648437 2.589844-11.984375 7.777344-15.996094s11.277343-6.019531 18.273437-6.019531c7.210937 0 13.527344 2.09375 18.953125 6.289062 5.429688 4.191407 8.144531 9.84375 8.144531 16.957032 0 4.636718-1.242187 9.003906-3.726562 13.097656-2.480469 4.097656-5.46875 7.539062-8.957031 10.316406-3.492188 2.785156-7 5.335938-10.527344 7.65625-3.53125 2.316406-6.546875 4.578125-9.050782 6.777344-2.5 2.207031-3.75 4.234375-3.75 6.089844v1.042968h30.535157c1.472656 0 2.753906.761719 3.84375 2.292969 1.089843 1.527344 1.632812 3.324219 1.632812 5.386719s-.542969 3.898438-1.621093 5.503906c-1.082032 1.605469-2.355469 2.410156-3.820313 2.410156h-41.222656c-1.777344 0-3.53125-.539062-5.269531-1.617187-1.738282-1.074219-2.605469-2.382813-2.605469-3.921875zm0 0"/></svg>